G75*
G70*
%OFA0B0*%
%FSLAX24Y24*%
%IPPOS*%
%LPD*%
%AMOC8*
5,1,8,0,0,1.08239X$1,22.5*
%
%ADD10C,0.0000*%
%ADD11C,0.0030*%
%ADD12C,0.0020*%
%ADD13C,0.0060*%
%ADD14C,0.0010*%
D10*
X005648Y000150D02*
X025268Y000150D01*
X025268Y019146D01*
X005648Y019146D01*
X005648Y000150D01*
X006892Y003764D02*
X006894Y003793D01*
X006900Y003821D01*
X006909Y003849D01*
X006922Y003875D01*
X006939Y003898D01*
X006958Y003920D01*
X006980Y003939D01*
X007005Y003954D01*
X007031Y003967D01*
X007059Y003975D01*
X007087Y003980D01*
X007116Y003981D01*
X007145Y003978D01*
X007173Y003971D01*
X007200Y003961D01*
X007226Y003947D01*
X007249Y003930D01*
X007270Y003910D01*
X007288Y003887D01*
X007303Y003862D01*
X007314Y003835D01*
X007322Y003807D01*
X007326Y003778D01*
X007326Y003750D01*
X007322Y003721D01*
X007314Y003693D01*
X007303Y003666D01*
X007288Y003641D01*
X007270Y003618D01*
X007249Y003598D01*
X007226Y003581D01*
X007200Y003567D01*
X007173Y003557D01*
X007145Y003550D01*
X007116Y003547D01*
X007087Y003548D01*
X007059Y003553D01*
X007031Y003561D01*
X007005Y003574D01*
X006980Y003589D01*
X006958Y003608D01*
X006939Y003630D01*
X006922Y003653D01*
X006909Y003679D01*
X006900Y003707D01*
X006894Y003735D01*
X006892Y003764D01*
X006892Y005536D02*
X006894Y005565D01*
X006900Y005593D01*
X006909Y005621D01*
X006922Y005647D01*
X006939Y005670D01*
X006958Y005692D01*
X006980Y005711D01*
X007005Y005726D01*
X007031Y005739D01*
X007059Y005747D01*
X007087Y005752D01*
X007116Y005753D01*
X007145Y005750D01*
X007173Y005743D01*
X007200Y005733D01*
X007226Y005719D01*
X007249Y005702D01*
X007270Y005682D01*
X007288Y005659D01*
X007303Y005634D01*
X007314Y005607D01*
X007322Y005579D01*
X007326Y005550D01*
X007326Y005522D01*
X007322Y005493D01*
X007314Y005465D01*
X007303Y005438D01*
X007288Y005413D01*
X007270Y005390D01*
X007249Y005370D01*
X007226Y005353D01*
X007200Y005339D01*
X007173Y005329D01*
X007145Y005322D01*
X007116Y005319D01*
X007087Y005320D01*
X007059Y005325D01*
X007031Y005333D01*
X007005Y005346D01*
X006980Y005361D01*
X006958Y005380D01*
X006939Y005402D01*
X006922Y005425D01*
X006909Y005451D01*
X006900Y005479D01*
X006894Y005507D01*
X006892Y005536D01*
D11*
X007711Y008265D02*
X007904Y008265D01*
X007807Y008265D02*
X007807Y008555D01*
X007904Y008458D01*
X008005Y008362D02*
X008005Y008555D01*
X008005Y008362D02*
X008102Y008265D01*
X008199Y008362D01*
X008199Y008555D01*
X008595Y008265D02*
X008788Y008265D01*
X008788Y008555D01*
X008889Y008555D02*
X009083Y008555D01*
X008986Y008555D02*
X008986Y008265D01*
X009281Y008265D02*
X009281Y008555D01*
X009377Y008555D02*
X009184Y008555D01*
X009773Y008555D02*
X009967Y008555D01*
X009870Y008555D02*
X009870Y008265D01*
X010068Y008265D02*
X010165Y008362D01*
X010116Y008362D02*
X010261Y008362D01*
X010261Y008265D02*
X010261Y008555D01*
X010116Y008555D01*
X010068Y008507D01*
X010068Y008410D01*
X010116Y008362D01*
X010362Y008410D02*
X010556Y008410D01*
X010556Y008458D02*
X010459Y008555D01*
X010362Y008458D01*
X010362Y008265D01*
X010556Y008265D02*
X010556Y008458D01*
X010657Y008555D02*
X010657Y008313D01*
X010705Y008265D01*
X010802Y008265D01*
X010851Y008313D01*
X010851Y008555D01*
X011246Y008410D02*
X011440Y008265D01*
X011541Y008362D02*
X011735Y008362D01*
X011735Y008458D02*
X011541Y008458D01*
X011440Y008555D02*
X011246Y008410D01*
X011836Y008265D02*
X012029Y008410D01*
X011836Y008555D01*
X012425Y008507D02*
X012425Y008458D01*
X012473Y008410D01*
X012619Y008410D01*
X012720Y008362D02*
X012720Y008313D01*
X012768Y008265D01*
X012865Y008265D01*
X012913Y008313D01*
X013014Y008313D02*
X013014Y008555D01*
X012913Y008507D02*
X012913Y008458D01*
X012865Y008410D01*
X012768Y008410D01*
X012720Y008362D01*
X012619Y008265D02*
X012473Y008265D01*
X012425Y008313D01*
X012425Y008362D01*
X012473Y008410D01*
X012425Y008507D02*
X012473Y008555D01*
X012619Y008555D01*
X012619Y008265D01*
X013014Y008313D02*
X013063Y008265D01*
X013159Y008265D01*
X013208Y008313D01*
X013208Y008555D01*
X012913Y008507D02*
X012865Y008555D01*
X012768Y008555D01*
X012720Y008507D01*
X013602Y008555D02*
X013699Y008555D01*
X013651Y008555D02*
X013651Y008265D01*
X013699Y008265D02*
X013602Y008265D01*
X013800Y008313D02*
X013800Y008507D01*
X013848Y008555D01*
X013994Y008555D01*
X013994Y008265D01*
X013848Y008265D01*
X013800Y008313D01*
X014095Y008555D02*
X014288Y008555D01*
X014191Y008555D02*
X014191Y008265D01*
X014486Y008410D02*
X014583Y008410D01*
X014583Y008265D02*
X014583Y008555D01*
X014389Y008555D01*
X020498Y008265D02*
X020692Y008265D01*
X020595Y008265D02*
X020595Y008555D01*
X020692Y008458D01*
X020793Y008362D02*
X020793Y008555D01*
X020793Y008362D02*
X020890Y008265D01*
X020986Y008362D01*
X020986Y008555D01*
X021382Y008555D02*
X021576Y008555D01*
X021576Y008265D01*
X021677Y008265D02*
X021774Y008362D01*
X021725Y008362D02*
X021870Y008362D01*
X021870Y008265D02*
X021870Y008555D01*
X021725Y008555D01*
X021677Y008507D01*
X021677Y008410D01*
X021725Y008362D01*
X021576Y008410D02*
X021479Y008410D01*
X022266Y008313D02*
X022314Y008265D01*
X022411Y008265D01*
X022460Y008313D01*
X022266Y008507D01*
X022266Y008313D01*
X022460Y008313D02*
X022460Y008507D01*
X022411Y008555D01*
X022314Y008555D01*
X022266Y008507D01*
X022561Y008507D02*
X022561Y008458D01*
X022609Y008410D01*
X022561Y008362D01*
X022561Y008313D01*
X022609Y008265D01*
X022706Y008265D01*
X022754Y008313D01*
X022658Y008410D02*
X022609Y008410D01*
X022561Y008507D02*
X022609Y008555D01*
X022706Y008555D01*
X022754Y008507D01*
X022855Y008410D02*
X023049Y008410D01*
X022904Y008555D01*
X022904Y008265D01*
X023150Y008410D02*
X023198Y008362D01*
X023344Y008362D01*
X023344Y008265D02*
X023344Y008555D01*
X023198Y008555D01*
X023150Y008507D01*
X023150Y008410D01*
X023445Y008362D02*
X023445Y008313D01*
X023493Y008265D01*
X023590Y008265D01*
X023638Y008313D01*
X023590Y008410D02*
X023638Y008458D01*
X023638Y008507D01*
X023590Y008555D01*
X023493Y008555D01*
X023445Y008507D01*
X023493Y008410D02*
X023445Y008362D01*
X023493Y008410D02*
X023590Y008410D01*
X023739Y008555D02*
X023739Y008265D01*
X023933Y008265D02*
X023933Y008555D01*
X023836Y008458D01*
X023739Y008555D01*
D12*
X018638Y009660D02*
X018638Y009880D01*
X018564Y009807D01*
X018491Y009880D01*
X018491Y009660D01*
X018417Y009697D02*
X018380Y009660D01*
X018307Y009660D01*
X018270Y009697D01*
X018270Y009733D01*
X018307Y009770D01*
X018380Y009770D01*
X018417Y009807D01*
X018417Y009843D01*
X018380Y009880D01*
X018307Y009880D01*
X018270Y009843D01*
X018196Y009880D02*
X018196Y009660D01*
X018196Y009733D02*
X018086Y009733D01*
X018049Y009770D01*
X018049Y009843D01*
X018086Y009880D01*
X018196Y009880D01*
X017975Y009770D02*
X017828Y009770D01*
X017754Y009697D02*
X017717Y009660D01*
X017644Y009660D01*
X017607Y009697D01*
X017607Y009733D01*
X017644Y009770D01*
X017681Y009770D01*
X017644Y009770D02*
X017607Y009807D01*
X017607Y009843D01*
X017644Y009880D01*
X017717Y009880D01*
X017754Y009843D01*
X017865Y009880D02*
X017975Y009770D01*
X017865Y009660D02*
X017865Y009880D01*
X017533Y009843D02*
X017533Y009697D01*
X017386Y009843D01*
X017386Y009697D01*
X017423Y009660D01*
X017496Y009660D01*
X017533Y009697D01*
X017533Y009843D02*
X017496Y009880D01*
X017423Y009880D01*
X017386Y009843D01*
X017091Y009770D02*
X016944Y009770D01*
X017018Y009843D02*
X017018Y009697D01*
X016649Y009660D02*
X016649Y009880D01*
X016502Y009660D01*
X016502Y009880D01*
X016428Y009880D02*
X016318Y009880D01*
X016281Y009843D01*
X016281Y009770D01*
X016318Y009733D01*
X016428Y009733D01*
X016428Y009660D02*
X016428Y009880D01*
X016355Y009733D02*
X016281Y009660D01*
X016207Y009660D02*
X016207Y009880D01*
X016060Y009880D01*
X015986Y009843D02*
X015949Y009880D01*
X015876Y009880D01*
X015839Y009843D01*
X015839Y009807D01*
X015986Y009660D01*
X015839Y009660D01*
X015765Y009770D02*
X015655Y009880D01*
X015655Y009660D01*
X015544Y009660D02*
X015544Y009880D01*
X015618Y009770D02*
X015765Y009770D01*
X015544Y009660D02*
X015397Y009660D01*
X015323Y009697D02*
X015176Y009843D01*
X015176Y009697D01*
X015213Y009660D01*
X015286Y009660D01*
X015323Y009697D01*
X015323Y009843D01*
X015286Y009880D01*
X015213Y009880D01*
X015176Y009843D01*
X015102Y009807D02*
X015029Y009880D01*
X015029Y009660D01*
X015102Y009660D02*
X014955Y009660D01*
X014660Y009697D02*
X014623Y009660D01*
X014550Y009660D01*
X014513Y009697D01*
X014513Y009733D01*
X014550Y009770D01*
X014623Y009770D01*
X014660Y009807D01*
X014660Y009843D01*
X014623Y009880D01*
X014550Y009880D01*
X014513Y009843D01*
X014439Y009880D02*
X014439Y009660D01*
X014292Y009660D01*
X014218Y009660D02*
X014218Y009880D01*
X014071Y009660D01*
X014071Y009880D01*
X013997Y009843D02*
X013997Y009807D01*
X013960Y009770D01*
X013887Y009770D01*
X013850Y009733D01*
X013850Y009697D01*
X013887Y009660D01*
X013960Y009660D01*
X013997Y009697D01*
X013997Y009843D02*
X013960Y009880D01*
X013887Y009880D01*
X013850Y009843D01*
X013776Y009843D02*
X013776Y009697D01*
X013739Y009660D01*
X013666Y009660D01*
X013629Y009697D01*
X013629Y009843D01*
X013666Y009880D01*
X013739Y009880D01*
X013776Y009843D01*
X013555Y009880D02*
X013555Y009660D01*
X013555Y009733D02*
X013445Y009733D01*
X013408Y009770D01*
X013408Y009843D01*
X013445Y009880D01*
X013555Y009880D01*
X013482Y009733D02*
X013408Y009660D01*
X013113Y009733D02*
X013040Y009660D01*
X012966Y009733D01*
X012966Y009880D01*
X012892Y009807D02*
X012819Y009880D01*
X012819Y009660D01*
X012892Y009660D02*
X012745Y009660D01*
X013113Y009733D02*
X013113Y009880D01*
X014292Y009880D02*
X014439Y009880D01*
X014439Y009770D02*
X014366Y009770D01*
X016134Y009770D02*
X016207Y009770D01*
X019725Y016160D02*
X019689Y016197D01*
X019689Y016233D01*
X019725Y016270D01*
X019835Y016270D01*
X019835Y016197D01*
X019799Y016160D01*
X019725Y016160D01*
X019835Y016270D02*
X019762Y016343D01*
X019689Y016380D01*
X019909Y016197D02*
X019909Y016160D01*
X019946Y016160D01*
X019946Y016197D01*
X019909Y016197D01*
X020020Y016160D02*
X020167Y016160D01*
X020093Y016160D02*
X020093Y016380D01*
X020167Y016307D01*
X020241Y016343D02*
X020241Y016270D01*
X020278Y016233D01*
X020388Y016233D01*
X020388Y016160D02*
X020388Y016380D01*
X020278Y016380D01*
X020241Y016343D01*
X020689Y016343D02*
X020835Y016197D01*
X020799Y016160D01*
X020725Y016160D01*
X020689Y016197D01*
X020689Y016343D01*
X020725Y016380D01*
X020799Y016380D01*
X020835Y016343D01*
X020835Y016197D01*
X020909Y016197D02*
X020909Y016160D01*
X020946Y016160D01*
X020946Y016197D01*
X020909Y016197D01*
X021020Y016160D02*
X021167Y016160D01*
X021093Y016160D02*
X021093Y016380D01*
X021167Y016307D01*
X021241Y016343D02*
X021241Y016270D01*
X021278Y016233D01*
X021388Y016233D01*
X021388Y016160D02*
X021388Y016380D01*
X021278Y016380D01*
X021241Y016343D01*
X021689Y016343D02*
X021689Y016307D01*
X021725Y016270D01*
X021689Y016233D01*
X021689Y016197D01*
X021725Y016160D01*
X021799Y016160D01*
X021835Y016197D01*
X021909Y016197D02*
X021909Y016160D01*
X021946Y016160D01*
X021946Y016197D01*
X021909Y016197D01*
X022020Y016160D02*
X022167Y016160D01*
X022093Y016160D02*
X022093Y016380D01*
X022167Y016307D01*
X022241Y016343D02*
X022241Y016270D01*
X022278Y016233D01*
X022388Y016233D01*
X022388Y016160D02*
X022388Y016380D01*
X022278Y016380D01*
X022241Y016343D01*
X021835Y016343D02*
X021799Y016380D01*
X021725Y016380D01*
X021689Y016343D01*
X021725Y016270D02*
X021762Y016270D01*
X022689Y016270D02*
X022835Y016270D01*
X022725Y016380D01*
X022725Y016160D01*
X022909Y016160D02*
X022946Y016160D01*
X022946Y016197D01*
X022909Y016197D01*
X022909Y016160D01*
X023020Y016160D02*
X023167Y016160D01*
X023093Y016160D02*
X023093Y016380D01*
X023167Y016307D01*
X023241Y016343D02*
X023241Y016270D01*
X023278Y016233D01*
X023388Y016233D01*
X023388Y016160D02*
X023388Y016380D01*
X023278Y016380D01*
X023241Y016343D01*
X023689Y016380D02*
X023835Y016380D01*
X023835Y016270D01*
X023762Y016307D01*
X023725Y016307D01*
X023689Y016270D01*
X023689Y016197D01*
X023725Y016160D01*
X023799Y016160D01*
X023835Y016197D01*
X023909Y016197D02*
X023909Y016160D01*
X023946Y016160D01*
X023946Y016197D01*
X023909Y016197D01*
X024020Y016160D02*
X024167Y016160D01*
X024093Y016160D02*
X024093Y016380D01*
X024167Y016307D01*
X024241Y016343D02*
X024241Y016270D01*
X024278Y016233D01*
X024388Y016233D01*
X024388Y016160D02*
X024388Y016380D01*
X024278Y016380D01*
X024241Y016343D01*
D13*
X024384Y015518D02*
X024384Y015282D01*
X023912Y015282D02*
X023912Y015518D01*
X023384Y015518D02*
X023384Y015282D01*
X022912Y015282D02*
X022912Y015518D01*
X022384Y015518D02*
X022384Y015282D01*
X021912Y015282D02*
X021912Y015518D01*
X021384Y015518D02*
X021384Y015282D01*
X020912Y015282D02*
X020912Y015518D01*
X020384Y015518D02*
X020384Y015282D01*
X019912Y015282D02*
X019912Y015518D01*
D14*
X020220Y014755D02*
X020271Y014755D01*
X020296Y014730D01*
X020296Y014705D01*
X020271Y014680D01*
X020195Y014680D01*
X020195Y014630D02*
X020195Y014730D01*
X020220Y014755D01*
X020343Y014730D02*
X020343Y014680D01*
X020368Y014655D01*
X020443Y014655D01*
X020443Y014605D02*
X020443Y014755D01*
X020368Y014755D01*
X020343Y014730D01*
X020393Y014655D02*
X020343Y014605D01*
X020296Y014630D02*
X020271Y014605D01*
X020220Y014605D01*
X020195Y014630D01*
X020923Y014630D02*
X020948Y014605D01*
X020998Y014605D01*
X021023Y014630D01*
X020923Y014730D01*
X020923Y014630D01*
X020923Y014730D02*
X020948Y014755D01*
X020998Y014755D01*
X021023Y014730D01*
X021023Y014630D01*
X021070Y014605D02*
X021171Y014605D01*
X021218Y014605D02*
X021268Y014655D01*
X021243Y014655D02*
X021318Y014655D01*
X021318Y014605D02*
X021318Y014755D01*
X021243Y014755D01*
X021218Y014730D01*
X021218Y014680D01*
X021243Y014655D01*
X021171Y014705D02*
X021121Y014755D01*
X021121Y014605D01*
X022048Y014605D02*
X022148Y014605D01*
X022195Y014605D02*
X022296Y014605D01*
X022343Y014605D02*
X022393Y014655D01*
X022368Y014655D02*
X022443Y014655D01*
X022443Y014605D02*
X022443Y014755D01*
X022368Y014755D01*
X022343Y014730D01*
X022343Y014680D01*
X022368Y014655D01*
X022296Y014705D02*
X022246Y014755D01*
X022246Y014605D01*
X022148Y014705D02*
X022098Y014755D01*
X022098Y014605D01*
X023048Y014630D02*
X023073Y014605D01*
X023123Y014605D01*
X023148Y014630D01*
X023195Y014605D02*
X023296Y014605D01*
X023343Y014605D02*
X023393Y014655D01*
X023368Y014655D02*
X023443Y014655D01*
X023443Y014605D02*
X023443Y014755D01*
X023368Y014755D01*
X023343Y014730D01*
X023343Y014680D01*
X023368Y014655D01*
X023296Y014705D02*
X023246Y014755D01*
X023246Y014605D01*
X023148Y014730D02*
X023123Y014755D01*
X023073Y014755D01*
X023048Y014730D01*
X023048Y014705D01*
X023073Y014680D01*
X023048Y014655D01*
X023048Y014630D01*
X023073Y014680D02*
X023098Y014680D01*
X023923Y014705D02*
X024023Y014605D01*
X023923Y014605D01*
X023923Y014705D02*
X023923Y014730D01*
X023948Y014755D01*
X023998Y014755D01*
X024023Y014730D01*
X024121Y014755D02*
X024121Y014605D01*
X024171Y014605D02*
X024070Y014605D01*
X024171Y014705D02*
X024121Y014755D01*
X024218Y014730D02*
X024218Y014680D01*
X024243Y014655D01*
X024318Y014655D01*
X024318Y014605D02*
X024318Y014755D01*
X024243Y014755D01*
X024218Y014730D01*
X024268Y014655D02*
X024218Y014605D01*
M02*
