G75*
G70*
%OFA0B0*%
%FSLAX24Y24*%
%IPPOS*%
%LPD*%
%AMOC8*
5,1,8,0,0,1.08239X$1,22.5*
%
%ADD10C,0.0000*%
%ADD11R,0.0158X0.0512*%
%ADD12C,0.0740*%
%ADD13R,0.0740X0.0740*%
%ADD14R,0.0512X0.0355*%
%ADD15R,0.0177X0.0590*%
%ADD16C,0.0780*%
%ADD17C,0.1306*%
%ADD18C,0.0473*%
%ADD19R,0.0780X0.0780*%
%ADD20R,0.0512X0.0257*%
%ADD21R,0.0355X0.0512*%
%ADD22OC8,0.0780*%
%ADD23C,0.0808*%
D10*
X005648Y000150D02*
X025268Y000150D01*
X025268Y019146D01*
X005648Y019146D01*
X005648Y000150D01*
X006892Y003764D02*
X006894Y003793D01*
X006900Y003821D01*
X006909Y003849D01*
X006922Y003875D01*
X006939Y003898D01*
X006958Y003920D01*
X006980Y003939D01*
X007005Y003954D01*
X007031Y003967D01*
X007059Y003975D01*
X007087Y003980D01*
X007116Y003981D01*
X007145Y003978D01*
X007173Y003971D01*
X007200Y003961D01*
X007226Y003947D01*
X007249Y003930D01*
X007270Y003910D01*
X007288Y003887D01*
X007303Y003862D01*
X007314Y003835D01*
X007322Y003807D01*
X007326Y003778D01*
X007326Y003750D01*
X007322Y003721D01*
X007314Y003693D01*
X007303Y003666D01*
X007288Y003641D01*
X007270Y003618D01*
X007249Y003598D01*
X007226Y003581D01*
X007200Y003567D01*
X007173Y003557D01*
X007145Y003550D01*
X007116Y003547D01*
X007087Y003548D01*
X007059Y003553D01*
X007031Y003561D01*
X007005Y003574D01*
X006980Y003589D01*
X006958Y003608D01*
X006939Y003630D01*
X006922Y003653D01*
X006909Y003679D01*
X006900Y003707D01*
X006894Y003735D01*
X006892Y003764D01*
X006892Y005536D02*
X006894Y005565D01*
X006900Y005593D01*
X006909Y005621D01*
X006922Y005647D01*
X006939Y005670D01*
X006958Y005692D01*
X006980Y005711D01*
X007005Y005726D01*
X007031Y005739D01*
X007059Y005747D01*
X007087Y005752D01*
X007116Y005753D01*
X007145Y005750D01*
X007173Y005743D01*
X007200Y005733D01*
X007226Y005719D01*
X007249Y005702D01*
X007270Y005682D01*
X007288Y005659D01*
X007303Y005634D01*
X007314Y005607D01*
X007322Y005579D01*
X007326Y005550D01*
X007326Y005522D01*
X007322Y005493D01*
X007314Y005465D01*
X007303Y005438D01*
X007288Y005413D01*
X007270Y005390D01*
X007249Y005370D01*
X007226Y005353D01*
X007200Y005339D01*
X007173Y005329D01*
X007145Y005322D01*
X007116Y005319D01*
X007087Y005320D01*
X007059Y005325D01*
X007031Y005333D01*
X007005Y005346D01*
X006980Y005361D01*
X006958Y005380D01*
X006939Y005402D01*
X006922Y005425D01*
X006909Y005451D01*
X006900Y005479D01*
X006894Y005507D01*
X006892Y005536D01*
D11*
X017733Y004505D03*
X017989Y004505D03*
X018245Y004505D03*
X018501Y004505D03*
X018756Y004505D03*
X019012Y004505D03*
X019268Y004505D03*
X019524Y004505D03*
X019780Y004505D03*
X020036Y004505D03*
X020292Y004505D03*
X020548Y004505D03*
X020804Y004505D03*
X021060Y004505D03*
X021060Y006789D03*
X020804Y006789D03*
X020548Y006789D03*
X020292Y006789D03*
X020036Y006789D03*
X019780Y006789D03*
X019524Y006789D03*
X019268Y006789D03*
X019012Y006789D03*
X018756Y006789D03*
X018501Y006789D03*
X018245Y006789D03*
X017989Y006789D03*
X017733Y006789D03*
X017986Y011511D03*
X018242Y011511D03*
X018498Y011511D03*
X018754Y011511D03*
X019010Y011511D03*
X019266Y011511D03*
X019522Y011511D03*
X019777Y011511D03*
X020033Y011511D03*
X020289Y011511D03*
X020545Y011511D03*
X020801Y011511D03*
X021057Y011511D03*
X021313Y011511D03*
X021313Y013795D03*
X021057Y013795D03*
X020801Y013795D03*
X020545Y013795D03*
X020289Y013795D03*
X020033Y013795D03*
X019777Y013795D03*
X019522Y013795D03*
X019266Y013795D03*
X019010Y013795D03*
X018754Y013795D03*
X018498Y013795D03*
X018242Y013795D03*
X017986Y013795D03*
D12*
X015553Y014150D03*
X014553Y014150D03*
X014553Y013150D03*
X015553Y013150D03*
X015553Y012150D03*
X014553Y012150D03*
X015553Y015150D03*
X022492Y007150D03*
X023492Y007150D03*
X023492Y006150D03*
X022492Y006150D03*
X022492Y005150D03*
X023492Y005150D03*
X022492Y004150D03*
D13*
X023492Y004150D03*
X014553Y015150D03*
D14*
X015398Y016046D03*
X015398Y016754D03*
X008398Y016254D03*
X007648Y016254D03*
X006898Y016254D03*
X006898Y015546D03*
X007648Y015546D03*
X008398Y015546D03*
X008398Y012754D03*
X008398Y012046D03*
X006898Y012046D03*
X006898Y012754D03*
X008898Y007754D03*
X009648Y007754D03*
X010398Y007754D03*
X010398Y007046D03*
X009648Y007046D03*
X008898Y007046D03*
X012898Y007046D03*
X012898Y007754D03*
X012148Y002254D03*
X012148Y001546D03*
X011398Y001546D03*
X011398Y002254D03*
X010648Y002254D03*
X010648Y001546D03*
X009898Y001546D03*
X009898Y002254D03*
X017648Y002254D03*
X017648Y001546D03*
X018398Y001546D03*
X018398Y002254D03*
X019148Y002254D03*
X019148Y001546D03*
D15*
X013061Y003211D03*
X012805Y003211D03*
X012549Y003211D03*
X012294Y003211D03*
X012038Y003211D03*
X011782Y003211D03*
X011526Y003211D03*
X011270Y003211D03*
X011014Y003211D03*
X010758Y003211D03*
X010502Y003211D03*
X010246Y003211D03*
X009990Y003211D03*
X009734Y003211D03*
X009734Y006089D03*
X009990Y006089D03*
X010246Y006089D03*
X010502Y006089D03*
X010758Y006089D03*
X011014Y006089D03*
X011270Y006089D03*
X011526Y006089D03*
X011782Y006089D03*
X012038Y006089D03*
X012294Y006089D03*
X012549Y006089D03*
X012805Y006089D03*
X013061Y006089D03*
D16*
X014348Y006650D03*
X014448Y005650D03*
X014348Y004650D03*
X014448Y003650D03*
X014348Y002650D03*
X016698Y003650D03*
X016598Y004650D03*
X016698Y005650D03*
X021648Y001600D03*
X022648Y001700D03*
X023648Y001600D03*
X008093Y003272D03*
X008093Y004206D03*
X008093Y005094D03*
X008093Y006028D03*
X009948Y013650D03*
X009848Y014650D03*
X009948Y015650D03*
X013898Y018500D03*
X014898Y018400D03*
X015898Y018500D03*
X016898Y018400D03*
X017898Y018500D03*
X018898Y018400D03*
D17*
X007148Y006933D03*
X007148Y002367D03*
D18*
X007109Y003764D03*
X007109Y005536D03*
D19*
X016598Y002650D03*
X020648Y001700D03*
X009848Y012650D03*
D20*
X008160Y013776D03*
X008160Y014150D03*
X008160Y014524D03*
X007136Y014524D03*
X007136Y014150D03*
X007136Y013776D03*
D21*
X021794Y010150D03*
X022502Y010150D03*
X023044Y010150D03*
X023752Y010150D03*
D22*
X024148Y017400D03*
X023148Y017400D03*
X022148Y017400D03*
X021148Y017400D03*
X020148Y017400D03*
X020148Y018400D03*
X021148Y018400D03*
X022148Y018400D03*
X023148Y018400D03*
X024148Y018400D03*
D23*
X008648Y018024D03*
X008648Y010150D03*
M02*
