G75*
G70*
%OFA0B0*%
%FSLAX24Y24*%
%IPPOS*%
%LPD*%
%AMOC8*
5,1,8,0,0,1.08239X$1,22.5*
%
%ADD10C,0.0000*%
%ADD11C,0.0020*%
%ADD12C,0.0050*%
%ADD13C,0.0120*%
%ADD14C,0.0060*%
%ADD15C,0.0010*%
%ADD16C,0.0080*%
%ADD17R,0.0200X0.0200*%
D10*
X005648Y000150D02*
X025268Y000150D01*
X025268Y019146D01*
X005648Y019146D01*
X005648Y000150D01*
X006892Y003764D02*
X006894Y003793D01*
X006900Y003821D01*
X006909Y003849D01*
X006922Y003875D01*
X006939Y003898D01*
X006958Y003920D01*
X006980Y003939D01*
X007005Y003954D01*
X007031Y003967D01*
X007059Y003975D01*
X007087Y003980D01*
X007116Y003981D01*
X007145Y003978D01*
X007173Y003971D01*
X007200Y003961D01*
X007226Y003947D01*
X007249Y003930D01*
X007270Y003910D01*
X007288Y003887D01*
X007303Y003862D01*
X007314Y003835D01*
X007322Y003807D01*
X007326Y003778D01*
X007326Y003750D01*
X007322Y003721D01*
X007314Y003693D01*
X007303Y003666D01*
X007288Y003641D01*
X007270Y003618D01*
X007249Y003598D01*
X007226Y003581D01*
X007200Y003567D01*
X007173Y003557D01*
X007145Y003550D01*
X007116Y003547D01*
X007087Y003548D01*
X007059Y003553D01*
X007031Y003561D01*
X007005Y003574D01*
X006980Y003589D01*
X006958Y003608D01*
X006939Y003630D01*
X006922Y003653D01*
X006909Y003679D01*
X006900Y003707D01*
X006894Y003735D01*
X006892Y003764D01*
X006892Y005536D02*
X006894Y005565D01*
X006900Y005593D01*
X006909Y005621D01*
X006922Y005647D01*
X006939Y005670D01*
X006958Y005692D01*
X006980Y005711D01*
X007005Y005726D01*
X007031Y005739D01*
X007059Y005747D01*
X007087Y005752D01*
X007116Y005753D01*
X007145Y005750D01*
X007173Y005743D01*
X007200Y005733D01*
X007226Y005719D01*
X007249Y005702D01*
X007270Y005682D01*
X007288Y005659D01*
X007303Y005634D01*
X007314Y005607D01*
X007322Y005579D01*
X007326Y005550D01*
X007326Y005522D01*
X007322Y005493D01*
X007314Y005465D01*
X007303Y005438D01*
X007288Y005413D01*
X007270Y005390D01*
X007249Y005370D01*
X007226Y005353D01*
X007200Y005339D01*
X007173Y005329D01*
X007145Y005322D01*
X007116Y005319D01*
X007087Y005320D01*
X007059Y005325D01*
X007031Y005333D01*
X007005Y005346D01*
X006980Y005361D01*
X006958Y005380D01*
X006939Y005402D01*
X006922Y005425D01*
X006909Y005451D01*
X006900Y005479D01*
X006894Y005507D01*
X006892Y005536D01*
D11*
X015068Y004912D02*
X015068Y004802D01*
X015288Y004802D01*
X015288Y004912D01*
X015251Y004949D01*
X015104Y004949D01*
X015068Y004912D01*
X015068Y004728D02*
X015288Y004581D01*
X015288Y004507D02*
X015214Y004433D01*
X015214Y004470D02*
X015214Y004360D01*
X015288Y004360D02*
X015068Y004360D01*
X015068Y004470D01*
X015104Y004507D01*
X015178Y004507D01*
X015214Y004470D01*
X015068Y004581D02*
X015288Y004728D01*
X015768Y004702D02*
X015768Y004812D01*
X015804Y004849D01*
X015951Y004849D01*
X015988Y004812D01*
X015988Y004702D01*
X015768Y004702D01*
X015768Y004628D02*
X015988Y004481D01*
X015988Y004628D02*
X015768Y004481D01*
X015768Y004407D02*
X015768Y004260D01*
X015768Y004333D02*
X015988Y004333D01*
X015288Y003912D02*
X015251Y003949D01*
X015104Y003949D01*
X015068Y003912D01*
X015068Y003802D01*
X015288Y003802D01*
X015288Y003912D01*
X015288Y003728D02*
X015068Y003581D01*
X015068Y003507D02*
X015068Y003360D01*
X015068Y003433D02*
X015288Y003433D01*
X015288Y003581D02*
X015068Y003728D01*
X015768Y003702D02*
X015768Y003812D01*
X015804Y003849D01*
X015951Y003849D01*
X015988Y003812D01*
X015988Y003702D01*
X015768Y003702D01*
X015768Y003628D02*
X015988Y003481D01*
X015988Y003407D02*
X015914Y003333D01*
X015914Y003370D02*
X015914Y003260D01*
X015988Y003260D02*
X015768Y003260D01*
X015768Y003370D01*
X015804Y003407D01*
X015878Y003407D01*
X015914Y003370D01*
X015768Y003481D02*
X015988Y003628D01*
X015951Y002799D02*
X015804Y002799D01*
X015768Y002762D01*
X015768Y002652D01*
X015988Y002652D01*
X015988Y002762D01*
X015951Y002799D01*
X015988Y002578D02*
X015768Y002578D01*
X015768Y002431D02*
X015988Y002578D01*
X015988Y002431D02*
X015768Y002431D01*
X015804Y002357D02*
X015768Y002320D01*
X015768Y002247D01*
X015804Y002210D01*
X015951Y002210D01*
X015988Y002247D01*
X015988Y002320D01*
X015951Y002357D01*
X015878Y002357D01*
X015878Y002283D01*
X015288Y002247D02*
X015288Y002320D01*
X015251Y002357D01*
X015178Y002357D01*
X015178Y002283D01*
X015251Y002210D02*
X015288Y002247D01*
X015251Y002210D02*
X015104Y002210D01*
X015068Y002247D01*
X015068Y002320D01*
X015104Y002357D01*
X015068Y002431D02*
X015288Y002578D01*
X015068Y002578D01*
X015068Y002652D02*
X015068Y002762D01*
X015104Y002799D01*
X015251Y002799D01*
X015288Y002762D01*
X015288Y002652D01*
X015068Y002652D01*
X015068Y002431D02*
X015288Y002431D01*
X015301Y005310D02*
X015338Y005347D01*
X015338Y005420D01*
X015301Y005457D01*
X015264Y005457D01*
X015228Y005420D01*
X015228Y005383D01*
X015228Y005420D02*
X015191Y005457D01*
X015154Y005457D01*
X015118Y005420D01*
X015118Y005347D01*
X015154Y005310D01*
X015118Y005531D02*
X015264Y005531D01*
X015338Y005604D01*
X015264Y005678D01*
X015118Y005678D01*
X015154Y005752D02*
X015118Y005789D01*
X015118Y005862D01*
X015154Y005899D01*
X015191Y005899D01*
X015228Y005862D01*
X015264Y005899D01*
X015301Y005899D01*
X015338Y005862D01*
X015338Y005789D01*
X015301Y005752D01*
X015228Y005825D02*
X015228Y005862D01*
X015768Y005887D02*
X015804Y005924D01*
X015841Y005924D01*
X015878Y005887D01*
X015914Y005924D01*
X015951Y005924D01*
X015988Y005887D01*
X015988Y005814D01*
X015951Y005777D01*
X015914Y005703D02*
X015768Y005703D01*
X015804Y005777D02*
X015768Y005814D01*
X015768Y005887D01*
X015878Y005887D02*
X015878Y005850D01*
X015914Y005703D02*
X015988Y005629D01*
X015914Y005556D01*
X015768Y005556D01*
X015804Y005482D02*
X015841Y005482D01*
X015878Y005445D01*
X015914Y005482D01*
X015951Y005482D01*
X015988Y005445D01*
X015988Y005372D01*
X015951Y005335D01*
X015878Y005408D02*
X015878Y005445D01*
X015804Y005482D02*
X015768Y005445D01*
X015768Y005372D01*
X015804Y005335D01*
X015301Y006510D02*
X015338Y006547D01*
X015338Y006620D01*
X015301Y006657D01*
X015228Y006657D01*
X015191Y006620D01*
X015191Y006583D01*
X015228Y006510D01*
X015118Y006510D01*
X015118Y006657D01*
X015118Y006731D02*
X015264Y006731D01*
X015338Y006804D01*
X015264Y006878D01*
X015118Y006878D01*
X010851Y012285D02*
X010704Y012285D01*
X010668Y012322D01*
X010668Y012395D01*
X010704Y012432D01*
X010778Y012432D02*
X010778Y012358D01*
X010778Y012432D02*
X010851Y012432D01*
X010888Y012395D01*
X010888Y012322D01*
X010851Y012285D01*
X010888Y012506D02*
X010668Y012506D01*
X010888Y012653D01*
X010668Y012653D01*
X010668Y012727D02*
X010668Y012837D01*
X010704Y012874D01*
X010851Y012874D01*
X010888Y012837D01*
X010888Y012727D01*
X010668Y012727D01*
X010668Y013410D02*
X010814Y013410D01*
X010888Y013483D01*
X010814Y013557D01*
X010668Y013557D01*
X010668Y013631D02*
X010668Y013704D01*
X010668Y013668D02*
X010888Y013668D01*
X010888Y013704D02*
X010888Y013631D01*
X010888Y013778D02*
X010668Y013778D01*
X010888Y013925D01*
X010668Y013925D01*
X010668Y014410D02*
X010888Y014557D01*
X010668Y014557D01*
X010704Y014631D02*
X010851Y014631D01*
X010888Y014668D01*
X010888Y014741D01*
X010851Y014778D01*
X010704Y014778D02*
X010668Y014741D01*
X010668Y014668D01*
X010704Y014631D01*
X010668Y014410D02*
X010888Y014410D01*
X010814Y015285D02*
X010668Y015285D01*
X010814Y015285D02*
X010888Y015358D01*
X010814Y015432D01*
X010668Y015432D01*
X010704Y015506D02*
X010851Y015506D01*
X010888Y015543D01*
X010888Y015616D01*
X010851Y015653D01*
X010704Y015653D01*
X010668Y015616D01*
X010668Y015543D01*
X010704Y015506D01*
X010668Y015727D02*
X010851Y015727D01*
X010888Y015764D01*
X010888Y015837D01*
X010851Y015874D01*
X010668Y015874D01*
X010668Y015948D02*
X010668Y016095D01*
X010668Y016021D02*
X010888Y016021D01*
X013408Y017572D02*
X013445Y017535D01*
X013518Y017535D01*
X013555Y017572D01*
X013555Y017645D01*
X013481Y017645D01*
X013408Y017718D02*
X013408Y017572D01*
X013408Y017718D02*
X013445Y017755D01*
X013518Y017755D01*
X013555Y017718D01*
X013629Y017755D02*
X013776Y017535D01*
X013776Y017755D01*
X013850Y017755D02*
X013960Y017755D01*
X013997Y017718D01*
X013997Y017572D01*
X013960Y017535D01*
X013850Y017535D01*
X013850Y017755D01*
X013629Y017755D02*
X013629Y017535D01*
X014408Y017535D02*
X014408Y017755D01*
X014518Y017755D01*
X014555Y017718D01*
X014555Y017645D01*
X014518Y017608D01*
X014408Y017608D01*
X014481Y017608D02*
X014555Y017535D01*
X014629Y017535D02*
X014776Y017535D01*
X014850Y017572D02*
X014887Y017535D01*
X014960Y017535D01*
X014997Y017572D01*
X014997Y017608D01*
X014960Y017645D01*
X014887Y017645D01*
X014850Y017682D01*
X014850Y017718D01*
X014887Y017755D01*
X014960Y017755D01*
X014997Y017718D01*
X015071Y017755D02*
X015071Y017535D01*
X015218Y017535D01*
X015144Y017645D02*
X015071Y017645D01*
X015071Y017755D02*
X015218Y017755D01*
X015292Y017755D02*
X015439Y017755D01*
X015365Y017755D02*
X015365Y017535D01*
X015731Y017535D02*
X015731Y017755D01*
X015658Y017755D02*
X015805Y017755D01*
X015879Y017755D02*
X015879Y017535D01*
X016026Y017535D01*
X016100Y017572D02*
X016137Y017535D01*
X016210Y017535D01*
X016247Y017572D01*
X016247Y017608D01*
X016210Y017645D01*
X016137Y017645D01*
X016100Y017682D01*
X016100Y017718D01*
X016137Y017755D01*
X016210Y017755D01*
X016247Y017718D01*
X016321Y017755D02*
X016468Y017755D01*
X016394Y017755D02*
X016394Y017535D01*
X016731Y017535D02*
X016731Y017755D01*
X016658Y017755D02*
X016805Y017755D01*
X016879Y017755D02*
X017026Y017535D01*
X017100Y017535D02*
X017210Y017535D01*
X017247Y017572D01*
X017247Y017718D01*
X017210Y017755D01*
X017100Y017755D01*
X017100Y017535D01*
X016879Y017535D02*
X017026Y017755D01*
X017658Y017755D02*
X017658Y017535D01*
X017658Y017608D02*
X017768Y017608D01*
X017805Y017645D01*
X017805Y017718D01*
X017768Y017755D01*
X017658Y017755D01*
X017731Y017608D02*
X017805Y017535D01*
X017879Y017535D02*
X018026Y017755D01*
X018100Y017755D02*
X018210Y017755D01*
X018247Y017718D01*
X018247Y017572D01*
X018210Y017535D01*
X018100Y017535D01*
X018100Y017755D01*
X017879Y017755D02*
X018026Y017535D01*
X018658Y017608D02*
X018731Y017535D01*
X018805Y017608D01*
X018805Y017755D01*
X018879Y017718D02*
X018879Y017572D01*
X018916Y017535D01*
X018989Y017535D01*
X019026Y017572D01*
X019100Y017572D02*
X019137Y017535D01*
X019210Y017535D01*
X019247Y017572D01*
X019247Y017718D02*
X019210Y017755D01*
X019137Y017755D01*
X019100Y017718D01*
X019100Y017572D01*
X019026Y017718D02*
X018989Y017755D01*
X018916Y017755D01*
X018879Y017718D01*
X018658Y017755D02*
X018658Y017608D01*
X019658Y016755D02*
X019768Y016755D01*
X019805Y016718D01*
X019805Y016645D01*
X019768Y016608D01*
X019658Y016608D01*
X019658Y016535D02*
X019658Y016755D01*
X019879Y016682D02*
X019952Y016755D01*
X019952Y016535D01*
X019879Y016535D02*
X020026Y016535D01*
X020100Y016535D02*
X020137Y016535D01*
X020137Y016572D01*
X020100Y016572D01*
X020100Y016535D01*
X020210Y016572D02*
X020210Y016645D01*
X020320Y016645D01*
X020357Y016608D01*
X020357Y016572D01*
X020320Y016535D01*
X020247Y016535D01*
X020210Y016572D01*
X020210Y016645D02*
X020284Y016718D01*
X020357Y016755D01*
X020658Y016755D02*
X020658Y016535D01*
X020658Y016608D02*
X020768Y016608D01*
X020805Y016645D01*
X020805Y016718D01*
X020768Y016755D01*
X020658Y016755D01*
X020879Y016682D02*
X020952Y016755D01*
X020952Y016535D01*
X020879Y016535D02*
X021026Y016535D01*
X021100Y016535D02*
X021137Y016535D01*
X021137Y016572D01*
X021100Y016572D01*
X021100Y016535D01*
X021210Y016572D02*
X021357Y016718D01*
X021357Y016572D01*
X021320Y016535D01*
X021247Y016535D01*
X021210Y016572D01*
X021210Y016718D01*
X021247Y016755D01*
X021320Y016755D01*
X021357Y016718D01*
X021658Y016755D02*
X021658Y016535D01*
X021658Y016608D02*
X021768Y016608D01*
X021805Y016645D01*
X021805Y016718D01*
X021768Y016755D01*
X021658Y016755D01*
X021879Y016682D02*
X021952Y016755D01*
X021952Y016535D01*
X021879Y016535D02*
X022026Y016535D01*
X022100Y016535D02*
X022137Y016535D01*
X022137Y016572D01*
X022100Y016572D01*
X022100Y016535D01*
X022210Y016572D02*
X022247Y016535D01*
X022320Y016535D01*
X022357Y016572D01*
X022357Y016608D01*
X022320Y016645D01*
X022284Y016645D01*
X022320Y016645D02*
X022357Y016682D01*
X022357Y016718D01*
X022320Y016755D01*
X022247Y016755D01*
X022210Y016718D01*
X022658Y016755D02*
X022658Y016535D01*
X022658Y016608D02*
X022768Y016608D01*
X022805Y016645D01*
X022805Y016718D01*
X022768Y016755D01*
X022658Y016755D01*
X022879Y016682D02*
X022952Y016755D01*
X022952Y016535D01*
X022879Y016535D02*
X023026Y016535D01*
X023100Y016535D02*
X023137Y016535D01*
X023137Y016572D01*
X023100Y016572D01*
X023100Y016535D01*
X023210Y016645D02*
X023357Y016645D01*
X023320Y016535D02*
X023320Y016755D01*
X023210Y016645D01*
X023658Y016608D02*
X023768Y016608D01*
X023805Y016645D01*
X023805Y016718D01*
X023768Y016755D01*
X023658Y016755D01*
X023658Y016535D01*
X023879Y016535D02*
X024026Y016535D01*
X023952Y016535D02*
X023952Y016755D01*
X023879Y016682D01*
X024100Y016572D02*
X024137Y016572D01*
X024137Y016535D01*
X024100Y016535D01*
X024100Y016572D01*
X024210Y016572D02*
X024247Y016535D01*
X024320Y016535D01*
X024357Y016572D01*
X024357Y016645D01*
X024320Y016682D01*
X024284Y016682D01*
X024210Y016645D01*
X024210Y016755D01*
X024357Y016755D01*
X016026Y017755D02*
X015879Y017755D01*
X015879Y017645D02*
X015952Y017645D01*
X014776Y017755D02*
X014629Y017755D01*
X014629Y017535D01*
X014629Y017645D02*
X014702Y017645D01*
X020170Y001030D02*
X020133Y000993D01*
X020133Y000847D01*
X020170Y000810D01*
X020243Y000810D01*
X020280Y000847D01*
X020280Y000920D01*
X020206Y000920D01*
X020280Y000993D02*
X020243Y001030D01*
X020170Y001030D01*
X020354Y001030D02*
X020501Y000810D01*
X020501Y001030D01*
X020575Y001030D02*
X020685Y001030D01*
X020722Y000993D01*
X020722Y000847D01*
X020685Y000810D01*
X020575Y000810D01*
X020575Y001030D01*
X020354Y001030D02*
X020354Y000810D01*
X021108Y000810D02*
X021108Y001030D01*
X021218Y001030D01*
X021255Y000993D01*
X021255Y000920D01*
X021218Y000883D01*
X021108Y000883D01*
X021181Y000883D02*
X021255Y000810D01*
X021329Y000810D02*
X021476Y000810D01*
X021550Y000847D02*
X021587Y000810D01*
X021660Y000810D01*
X021697Y000847D01*
X021697Y000883D01*
X021660Y000920D01*
X021587Y000920D01*
X021550Y000957D01*
X021550Y000993D01*
X021587Y001030D01*
X021660Y001030D01*
X021697Y000993D01*
X021771Y001030D02*
X021771Y000810D01*
X021918Y000810D01*
X021844Y000920D02*
X021771Y000920D01*
X021771Y001030D02*
X021918Y001030D01*
X021992Y001030D02*
X022139Y001030D01*
X022065Y001030D02*
X022065Y000810D01*
X022331Y000810D02*
X022331Y001030D01*
X022258Y001030D02*
X022405Y001030D01*
X022479Y001030D02*
X022479Y000810D01*
X022626Y000810D01*
X022700Y000847D02*
X022737Y000810D01*
X022810Y000810D01*
X022847Y000847D01*
X022847Y000883D01*
X022810Y000920D01*
X022737Y000920D01*
X022700Y000957D01*
X022700Y000993D01*
X022737Y001030D01*
X022810Y001030D01*
X022847Y000993D01*
X022921Y001030D02*
X023068Y001030D01*
X022994Y001030D02*
X022994Y000810D01*
X022626Y001030D02*
X022479Y001030D01*
X022479Y000920D02*
X022552Y000920D01*
X023408Y000883D02*
X023481Y000810D01*
X023555Y000883D01*
X023555Y001030D01*
X023629Y000993D02*
X023629Y000847D01*
X023666Y000810D01*
X023739Y000810D01*
X023776Y000847D01*
X023850Y000847D02*
X023887Y000810D01*
X023960Y000810D01*
X023997Y000847D01*
X023997Y000993D02*
X023960Y001030D01*
X023887Y001030D01*
X023850Y000993D01*
X023850Y000847D01*
X023776Y000993D02*
X023739Y001030D01*
X023666Y001030D01*
X023629Y000993D01*
X023408Y001030D02*
X023408Y000883D01*
X021476Y001030D02*
X021329Y001030D01*
X021329Y000810D01*
X021329Y000920D02*
X021402Y000920D01*
D12*
X017848Y001800D02*
X017648Y002000D01*
X017848Y002000D01*
X017848Y001800D02*
X017473Y001800D01*
X017648Y002000D01*
X017448Y002000D01*
X017477Y004781D02*
X021296Y004781D01*
X021296Y006513D01*
X017477Y006513D01*
X017477Y004781D01*
X017615Y004919D02*
X017617Y004927D01*
X017622Y004934D01*
X017629Y004938D01*
X017637Y004939D01*
X017645Y004936D01*
X017651Y004931D01*
X017655Y004923D01*
X017655Y004915D01*
X017651Y004907D01*
X017645Y004902D01*
X017637Y004899D01*
X017629Y004900D01*
X017622Y004904D01*
X017617Y004911D01*
X017615Y004919D01*
X012348Y002000D02*
X012148Y002000D01*
X011948Y002000D01*
X012148Y002000D02*
X011973Y001800D01*
X012348Y001800D01*
X012148Y002000D01*
X011598Y002000D02*
X011398Y002000D01*
X011198Y002000D01*
X011398Y002000D02*
X011223Y001800D01*
X011598Y001800D01*
X011398Y002000D01*
X022048Y009950D02*
X022048Y010150D01*
X022048Y010350D01*
X022248Y010350D02*
X022048Y010150D01*
X022248Y009975D01*
X022248Y010350D01*
X021569Y011787D02*
X017750Y011787D01*
X017750Y013519D01*
X021569Y013519D01*
X021569Y011787D01*
X021391Y013381D02*
X021393Y013389D01*
X021398Y013396D01*
X021405Y013400D01*
X021413Y013401D01*
X021421Y013398D01*
X021427Y013393D01*
X021431Y013385D01*
X021431Y013377D01*
X021427Y013369D01*
X021421Y013364D01*
X021413Y013361D01*
X021405Y013362D01*
X021398Y013366D01*
X021393Y013373D01*
X021391Y013381D01*
D13*
X026648Y010650D02*
X026648Y016150D01*
X013648Y016150D01*
X013648Y010650D01*
X026648Y010650D01*
X024398Y008650D02*
X024398Y003150D01*
X011398Y003150D01*
X011398Y008650D01*
X024398Y008650D01*
D14*
X023516Y009914D02*
X023280Y009914D01*
X023280Y010386D02*
X023516Y010386D01*
X015634Y016282D02*
X015634Y016518D01*
X015162Y016518D02*
X015162Y016282D01*
X019648Y017150D02*
X019648Y018650D01*
X019898Y018900D01*
X020398Y018900D01*
X020648Y018650D01*
X020648Y017150D01*
X020398Y016900D01*
X019898Y016900D01*
X019648Y017150D01*
X020648Y017150D02*
X020898Y016900D01*
X021398Y016900D01*
X021648Y017150D01*
X021648Y018650D01*
X021398Y018900D01*
X020898Y018900D01*
X020648Y018650D01*
X021648Y018650D02*
X021898Y018900D01*
X022398Y018900D01*
X022648Y018650D01*
X022648Y017150D01*
X022398Y016900D01*
X021898Y016900D01*
X021648Y017150D01*
X022648Y017150D02*
X022898Y016900D01*
X023398Y016900D01*
X023648Y017150D01*
X023648Y018650D01*
X023398Y018900D01*
X022898Y018900D01*
X022648Y018650D01*
X023648Y018650D02*
X023898Y018900D01*
X024398Y018900D01*
X024648Y018650D01*
X024648Y017150D01*
X024398Y016900D01*
X023898Y016900D01*
X023648Y017150D01*
X013134Y007518D02*
X013134Y007282D01*
X012662Y007282D02*
X012662Y007518D01*
X013445Y005802D02*
X013445Y003498D01*
X009351Y003498D01*
X009351Y005802D01*
X013445Y005802D01*
X012880Y005418D02*
X012882Y005444D01*
X012888Y005470D01*
X012897Y005495D01*
X012910Y005518D01*
X012926Y005539D01*
X012945Y005557D01*
X012967Y005573D01*
X012990Y005585D01*
X013015Y005593D01*
X013041Y005598D01*
X013068Y005599D01*
X013094Y005596D01*
X013119Y005589D01*
X013144Y005579D01*
X013166Y005565D01*
X013187Y005548D01*
X013204Y005529D01*
X013219Y005507D01*
X013230Y005483D01*
X013238Y005457D01*
X013242Y005431D01*
X013242Y005405D01*
X013238Y005379D01*
X013230Y005353D01*
X013219Y005329D01*
X013204Y005307D01*
X013187Y005288D01*
X013166Y005271D01*
X013144Y005257D01*
X013119Y005247D01*
X013094Y005240D01*
X013068Y005237D01*
X013041Y005238D01*
X013015Y005243D01*
X012990Y005251D01*
X012967Y005263D01*
X012945Y005279D01*
X012926Y005297D01*
X012910Y005318D01*
X012897Y005341D01*
X012888Y005366D01*
X012882Y005392D01*
X012880Y005418D01*
X010634Y007282D02*
X010634Y007518D01*
X010162Y007518D02*
X010162Y007282D01*
X009884Y007282D02*
X009884Y007518D01*
X009412Y007518D02*
X009412Y007282D01*
X009134Y007282D02*
X009134Y007518D01*
X008662Y007518D02*
X008662Y007282D01*
X008634Y012282D02*
X008634Y012518D01*
X008162Y012518D02*
X008162Y012282D01*
X007134Y012282D02*
X007134Y012518D01*
X006662Y012518D02*
X006662Y012282D01*
X007329Y013590D02*
X007329Y013627D01*
X007329Y013590D02*
X007967Y013590D01*
X007967Y013627D01*
X007786Y013756D02*
X007788Y013768D01*
X007793Y013779D01*
X007802Y013788D01*
X007813Y013793D01*
X007825Y013795D01*
X007837Y013793D01*
X007848Y013788D01*
X007857Y013779D01*
X007862Y013768D01*
X007864Y013756D01*
X007862Y013744D01*
X007857Y013733D01*
X007848Y013724D01*
X007837Y013719D01*
X007825Y013717D01*
X007813Y013719D01*
X007802Y013724D01*
X007793Y013733D01*
X007788Y013744D01*
X007786Y013756D01*
X007967Y013944D02*
X007967Y013981D01*
X007967Y014319D02*
X007967Y014356D01*
X007967Y014673D02*
X007967Y014710D01*
X007329Y014710D01*
X007329Y014673D01*
X007329Y014356D02*
X007329Y014319D01*
X007329Y013981D02*
X007329Y013944D01*
X007412Y015782D02*
X007412Y016018D01*
X007134Y016018D02*
X007134Y015782D01*
X006662Y015782D02*
X006662Y016018D01*
X007884Y016018D02*
X007884Y015782D01*
X008162Y015782D02*
X008162Y016018D01*
X008634Y016018D02*
X008634Y015782D01*
X009662Y002018D02*
X009662Y001782D01*
X010134Y001782D02*
X010134Y002018D01*
X010412Y002018D02*
X010412Y001782D01*
X010884Y001782D02*
X010884Y002018D01*
X018162Y002018D02*
X018162Y001782D01*
X018634Y001782D02*
X018634Y002018D01*
X018912Y002018D02*
X018912Y001782D01*
X019384Y001782D02*
X019384Y002018D01*
D15*
X019375Y001055D02*
X019325Y001055D01*
X019300Y001030D01*
X019253Y001030D02*
X019253Y000980D01*
X019228Y000955D01*
X019153Y000955D01*
X019203Y000955D02*
X019253Y000905D01*
X019300Y000905D02*
X019400Y001005D01*
X019400Y001030D01*
X019375Y001055D01*
X019253Y001030D02*
X019228Y001055D01*
X019153Y001055D01*
X019153Y000905D01*
X019300Y000905D02*
X019400Y000905D01*
X018600Y001005D02*
X018500Y001005D01*
X018575Y001080D01*
X018575Y000930D01*
X018453Y000930D02*
X018403Y000980D01*
X018428Y000980D02*
X018353Y000980D01*
X018353Y000930D02*
X018353Y001080D01*
X018428Y001080D01*
X018453Y001055D01*
X018453Y001005D01*
X018428Y000980D01*
X018161Y000930D02*
X018136Y000905D01*
X018086Y000905D01*
X018060Y000930D01*
X018161Y001030D01*
X018161Y000930D01*
X018161Y001030D02*
X018136Y001055D01*
X018086Y001055D01*
X018060Y001030D01*
X018060Y000930D01*
X018012Y000930D02*
X018012Y000905D01*
X017987Y000905D01*
X017987Y000930D01*
X018012Y000930D01*
X017940Y000905D02*
X017840Y000905D01*
X017890Y000905D02*
X017890Y001055D01*
X017840Y001005D01*
X017792Y000980D02*
X017767Y000955D01*
X017692Y000955D01*
X017692Y000905D02*
X017692Y001055D01*
X017767Y001055D01*
X017792Y001030D01*
X017792Y000980D01*
X017645Y000980D02*
X017545Y000980D01*
X017498Y000930D02*
X017498Y001030D01*
X017473Y001055D01*
X017398Y001055D01*
X017398Y000905D01*
X017473Y000905D01*
X017498Y000930D01*
X017350Y000905D02*
X017250Y000905D01*
X017250Y001055D01*
X017350Y001055D01*
X017300Y000980D02*
X017250Y000980D01*
X017203Y000905D02*
X017103Y000905D01*
X017103Y001055D01*
X012592Y001155D02*
X012592Y001255D01*
X012567Y001280D01*
X012492Y001280D01*
X012492Y001130D01*
X012567Y001130D01*
X012592Y001155D01*
X012445Y001130D02*
X012345Y001130D01*
X012345Y001280D01*
X012445Y001280D01*
X012395Y001205D02*
X012345Y001205D01*
X012298Y001130D02*
X012198Y001130D01*
X012198Y001280D01*
X012150Y001280D02*
X012050Y001130D01*
X011953Y001130D02*
X011953Y001280D01*
X011903Y001280D02*
X012003Y001280D01*
X012050Y001280D02*
X012150Y001130D01*
X011767Y001155D02*
X011767Y001255D01*
X011742Y001280D01*
X011667Y001280D01*
X011667Y001130D01*
X011742Y001130D01*
X011767Y001155D01*
X011620Y001130D02*
X011520Y001130D01*
X011520Y001280D01*
X011620Y001280D01*
X011570Y001205D02*
X011520Y001205D01*
X011473Y001130D02*
X011373Y001130D01*
X011373Y001280D01*
X011325Y001280D02*
X011225Y001130D01*
X011178Y001130D02*
X011128Y001180D01*
X011153Y001180D02*
X011078Y001180D01*
X011078Y001130D02*
X011078Y001280D01*
X011153Y001280D01*
X011178Y001255D01*
X011178Y001205D01*
X011153Y001180D01*
X011225Y001280D02*
X011325Y001130D01*
X010650Y001155D02*
X010625Y001130D01*
X010575Y001130D01*
X010550Y001155D01*
X010503Y001130D02*
X010453Y001180D01*
X010478Y001180D02*
X010403Y001180D01*
X010403Y001130D02*
X010403Y001280D01*
X010478Y001280D01*
X010503Y001255D01*
X010503Y001205D01*
X010478Y001180D01*
X010550Y001255D02*
X010575Y001280D01*
X010625Y001280D01*
X010650Y001255D01*
X010650Y001230D01*
X010625Y001205D01*
X010650Y001180D01*
X010650Y001155D01*
X010625Y001205D02*
X010600Y001205D01*
X009900Y001130D02*
X009800Y001130D01*
X009753Y001130D02*
X009703Y001180D01*
X009728Y001180D02*
X009653Y001180D01*
X009653Y001130D02*
X009653Y001280D01*
X009728Y001280D01*
X009753Y001255D01*
X009753Y001205D01*
X009728Y001180D01*
X009800Y001230D02*
X009850Y001280D01*
X009850Y001130D01*
X009650Y008330D02*
X009550Y008330D01*
X009503Y008330D02*
X009403Y008330D01*
X009403Y008480D01*
X009550Y008430D02*
X009600Y008480D01*
X009600Y008330D01*
X010153Y008355D02*
X010178Y008330D01*
X010228Y008330D01*
X010253Y008355D01*
X010300Y008330D02*
X010400Y008430D01*
X010400Y008455D01*
X010375Y008480D01*
X010325Y008480D01*
X010300Y008455D01*
X010253Y008455D02*
X010228Y008480D01*
X010178Y008480D01*
X010153Y008455D01*
X010153Y008355D01*
X010300Y008330D02*
X010400Y008330D01*
X008900Y008355D02*
X008875Y008330D01*
X008825Y008330D01*
X008800Y008355D01*
X008753Y008355D02*
X008728Y008330D01*
X008678Y008330D01*
X008653Y008355D01*
X008653Y008455D01*
X008678Y008480D01*
X008728Y008480D01*
X008753Y008455D01*
X008800Y008455D02*
X008825Y008480D01*
X008875Y008480D01*
X008900Y008455D01*
X008900Y008430D01*
X008875Y008405D01*
X008900Y008380D01*
X008900Y008355D01*
X008875Y008405D02*
X008850Y008405D01*
X012653Y008380D02*
X012678Y008355D01*
X012728Y008355D01*
X012753Y008380D01*
X012800Y008355D02*
X012900Y008355D01*
X012850Y008355D02*
X012850Y008505D01*
X012800Y008455D01*
X012753Y008480D02*
X012728Y008505D01*
X012678Y008505D01*
X012653Y008480D01*
X012653Y008380D01*
X008475Y011480D02*
X008375Y011480D01*
X008475Y011580D01*
X008475Y011605D01*
X008450Y011630D01*
X008400Y011630D01*
X008375Y011605D01*
X008328Y011480D02*
X008228Y011480D01*
X008228Y011630D01*
X006850Y011555D02*
X006750Y011555D01*
X006825Y011630D01*
X006825Y011480D01*
X006703Y011505D02*
X006678Y011480D01*
X006628Y011480D01*
X006603Y011505D01*
X006603Y011605D01*
X006628Y011630D01*
X006678Y011630D01*
X006703Y011605D01*
X006678Y015105D02*
X006703Y015130D01*
X006678Y015105D02*
X006628Y015105D01*
X006603Y015130D01*
X006603Y015230D01*
X006628Y015255D01*
X006678Y015255D01*
X006703Y015230D01*
X006750Y015255D02*
X006750Y015180D01*
X006800Y015205D01*
X006825Y015205D01*
X006850Y015180D01*
X006850Y015130D01*
X006825Y015105D01*
X006775Y015105D01*
X006750Y015130D01*
X006750Y015255D02*
X006850Y015255D01*
X007478Y015255D02*
X007478Y015105D01*
X007478Y015155D02*
X007553Y015155D01*
X007578Y015180D01*
X007578Y015230D01*
X007553Y015255D01*
X007478Y015255D01*
X007528Y015155D02*
X007578Y015105D01*
X007625Y015130D02*
X007650Y015105D01*
X007700Y015105D01*
X007725Y015130D01*
X007725Y015155D01*
X007700Y015180D01*
X007625Y015180D01*
X007625Y015130D01*
X007625Y015180D02*
X007675Y015230D01*
X007725Y015255D01*
X008228Y015255D02*
X008228Y015105D01*
X008228Y015155D02*
X008303Y015155D01*
X008328Y015180D01*
X008328Y015230D01*
X008303Y015255D01*
X008228Y015255D01*
X008278Y015155D02*
X008328Y015105D01*
X008375Y015130D02*
X008400Y015105D01*
X008450Y015105D01*
X008475Y015130D01*
X008475Y015180D01*
X008450Y015205D01*
X008425Y015205D01*
X008375Y015180D01*
X008375Y015255D01*
X008475Y015255D01*
X014603Y016730D02*
X014603Y016880D01*
X014678Y016880D01*
X014703Y016855D01*
X014703Y016805D01*
X014678Y016780D01*
X014603Y016780D01*
X014653Y016780D02*
X014703Y016730D01*
X014750Y016730D02*
X014750Y016755D01*
X014850Y016855D01*
X014850Y016880D01*
X014750Y016880D01*
X024033Y010195D02*
X024108Y010195D01*
X024133Y010170D01*
X024133Y010120D01*
X024108Y010095D01*
X024033Y010095D01*
X024033Y010045D02*
X024033Y010195D01*
X024083Y010095D02*
X024133Y010045D01*
X024181Y010070D02*
X024181Y010095D01*
X024206Y010120D01*
X024256Y010120D01*
X024281Y010095D01*
X024281Y010070D01*
X024256Y010045D01*
X024206Y010045D01*
X024181Y010070D01*
X024206Y010120D02*
X024181Y010145D01*
X024181Y010170D01*
X024206Y010195D01*
X024256Y010195D01*
X024281Y010170D01*
X024281Y010145D01*
X024256Y010120D01*
X022656Y009670D02*
X022556Y009570D01*
X022581Y009545D01*
X022631Y009545D01*
X022656Y009570D01*
X022656Y009670D01*
X022631Y009695D01*
X022581Y009695D01*
X022556Y009670D01*
X022556Y009570D01*
X022507Y009570D02*
X022507Y009545D01*
X022482Y009545D01*
X022482Y009570D01*
X022507Y009570D01*
X022435Y009570D02*
X022410Y009545D01*
X022360Y009545D01*
X022335Y009570D01*
X022287Y009620D02*
X022262Y009595D01*
X022187Y009595D01*
X022187Y009545D02*
X022187Y009695D01*
X022262Y009695D01*
X022287Y009670D01*
X022287Y009620D01*
X022335Y009670D02*
X022360Y009695D01*
X022410Y009695D01*
X022435Y009670D01*
X022435Y009645D01*
X022410Y009620D01*
X022435Y009595D01*
X022435Y009570D01*
X022410Y009620D02*
X022385Y009620D01*
X022140Y009620D02*
X022040Y009620D01*
X021993Y009570D02*
X021993Y009670D01*
X021968Y009695D01*
X021893Y009695D01*
X021893Y009545D01*
X021968Y009545D01*
X021993Y009570D01*
X021845Y009545D02*
X021745Y009545D01*
X021745Y009695D01*
X021845Y009695D01*
X021795Y009620D02*
X021745Y009620D01*
X021698Y009545D02*
X021598Y009545D01*
X021598Y009695D01*
D16*
X017148Y005900D02*
X016898Y006150D01*
X016398Y006150D01*
X016148Y005900D01*
X016148Y005400D01*
X016398Y005150D01*
X016148Y004900D01*
X016148Y004400D01*
X016398Y004150D01*
X016148Y003900D01*
X016148Y003400D01*
X016398Y003150D01*
X016148Y002900D01*
X016148Y002400D01*
X016398Y002150D01*
X016898Y002150D01*
X017148Y002400D01*
X017148Y002900D01*
X016898Y003150D01*
X017148Y003400D01*
X017148Y003900D01*
X016898Y004150D01*
X017148Y004400D01*
X017148Y004900D01*
X016898Y005150D01*
X017148Y005400D01*
X017148Y005900D01*
X014898Y005900D02*
X014898Y005400D01*
X014648Y005150D01*
X014898Y004900D01*
X014898Y004400D01*
X014648Y004150D01*
X014898Y003900D01*
X014898Y003400D01*
X014648Y003150D01*
X014898Y002900D01*
X014898Y002400D01*
X014648Y002150D01*
X014148Y002150D01*
X013898Y002400D01*
X013898Y002900D01*
X014148Y003150D01*
X013898Y003400D01*
X013898Y003900D01*
X014148Y004150D01*
X013898Y004400D01*
X013898Y004900D01*
X014148Y005150D01*
X013898Y005400D01*
X013898Y005900D01*
X014148Y006150D01*
X013898Y006400D01*
X013898Y006900D01*
X014148Y007150D01*
X014648Y007150D01*
X014898Y006900D01*
X014898Y006400D01*
X014648Y006150D01*
X014898Y005900D01*
X020148Y001900D02*
X020398Y002150D01*
X020898Y002150D01*
X021148Y001900D01*
X021398Y002150D01*
X021898Y002150D01*
X022148Y001900D01*
X022398Y002150D01*
X022898Y002150D01*
X023148Y001900D01*
X023398Y002150D01*
X023898Y002150D01*
X024148Y001900D01*
X024148Y001400D01*
X023898Y001150D01*
X023398Y001150D01*
X023148Y001400D01*
X022898Y001150D01*
X022398Y001150D01*
X022148Y001400D01*
X021898Y001150D01*
X021398Y001150D01*
X021148Y001400D01*
X020898Y001150D01*
X020398Y001150D01*
X020148Y001400D01*
X020148Y001900D01*
X007542Y003075D02*
X007542Y006225D01*
X006360Y007012D02*
X005967Y007012D01*
X005967Y002288D01*
X006360Y002288D01*
X009648Y012150D02*
X009398Y012400D01*
X009398Y012900D01*
X009648Y013150D01*
X009398Y013400D01*
X009398Y013900D01*
X009648Y014150D01*
X009398Y014400D01*
X009398Y014900D01*
X009648Y015150D01*
X009398Y015400D01*
X009398Y015900D01*
X009648Y016150D01*
X010148Y016150D01*
X010398Y015900D01*
X010398Y015400D01*
X010148Y015150D01*
X010398Y014900D01*
X010398Y014400D01*
X010148Y014150D01*
X010398Y013900D01*
X010398Y013400D01*
X010148Y013150D01*
X010398Y012900D01*
X010398Y012400D01*
X010148Y012150D01*
X009648Y012150D01*
X010223Y017630D02*
X010413Y017548D01*
X010599Y017457D01*
X010781Y017357D01*
X010957Y017249D01*
X011128Y017132D01*
X011293Y017007D01*
X011452Y016873D01*
X011604Y016733D01*
X011749Y016585D01*
X011887Y016430D01*
X012016Y016268D01*
X012138Y016101D01*
X012252Y015927D01*
X012356Y015749D01*
X012452Y015565D01*
X012539Y015377D01*
X012617Y015185D01*
X012685Y014989D01*
X012744Y014790D01*
X012792Y014589D01*
X012831Y014385D01*
X012860Y014180D01*
X012879Y013974D01*
X012887Y013767D01*
X012886Y013560D01*
X012874Y013353D01*
X012853Y013147D01*
X012821Y012942D01*
X012779Y012739D01*
X012728Y012538D01*
X012667Y012341D01*
X012596Y012146D01*
X012515Y011955D01*
X012426Y011768D01*
X012327Y011586D01*
X012220Y011409D01*
X012104Y011237D01*
X011980Y011071D01*
X011848Y010911D01*
X011708Y010758D01*
X011561Y010612D01*
X011407Y010474D01*
X011247Y010343D01*
X011080Y010220D01*
X010907Y010105D01*
X010729Y009999D01*
X010546Y009902D01*
X010359Y009814D01*
X010167Y009735D01*
X009972Y009665D01*
X009774Y009605D01*
X009573Y009555D01*
X009370Y009515D01*
X009165Y009485D01*
X008959Y009464D01*
X008752Y009454D01*
X008544Y009454D01*
X008337Y009464D01*
X008131Y009485D01*
X007926Y009515D01*
X007723Y009555D01*
X007522Y009605D01*
X007324Y009665D01*
X007129Y009735D01*
X006937Y009814D01*
X006750Y009902D01*
X006567Y009999D01*
X006389Y010105D01*
X006216Y010220D01*
X006049Y010343D01*
X005889Y010474D01*
X005735Y010612D01*
X005588Y010758D01*
X005448Y010911D01*
X005316Y011071D01*
X005192Y011237D01*
X005076Y011409D01*
X004969Y011586D01*
X004870Y011768D01*
X004781Y011955D01*
X004700Y012146D01*
X004629Y012341D01*
X004568Y012538D01*
X004517Y012739D01*
X004475Y012942D01*
X004443Y013147D01*
X004422Y013353D01*
X004410Y013560D01*
X004409Y013767D01*
X004417Y013974D01*
X004436Y014180D01*
X004465Y014385D01*
X004504Y014589D01*
X004552Y014790D01*
X004611Y014989D01*
X004679Y015185D01*
X004757Y015377D01*
X004844Y015565D01*
X004940Y015749D01*
X005044Y015927D01*
X005158Y016101D01*
X005280Y016268D01*
X005409Y016430D01*
X005547Y016585D01*
X005692Y016733D01*
X005844Y016873D01*
X006003Y017007D01*
X006168Y017132D01*
X006339Y017249D01*
X006515Y017357D01*
X006697Y017457D01*
X006883Y017548D01*
X007073Y017630D01*
X007073Y018811D01*
X010223Y018811D01*
X010223Y017630D01*
X013398Y018200D02*
X013398Y018700D01*
X013648Y018950D01*
X014148Y018950D01*
X014398Y018700D01*
X014398Y018200D01*
X014148Y017950D01*
X013648Y017950D01*
X013398Y018200D01*
X014398Y018200D02*
X014648Y017950D01*
X015148Y017950D01*
X015398Y018200D01*
X015398Y018700D01*
X015648Y018950D01*
X016148Y018950D01*
X016398Y018700D01*
X016398Y018200D01*
X016148Y017950D01*
X015648Y017950D01*
X015398Y018200D01*
X015398Y018700D02*
X015148Y018950D01*
X014648Y018950D01*
X014398Y018700D01*
X016398Y018700D02*
X016648Y018950D01*
X017148Y018950D01*
X017398Y018700D01*
X017398Y018200D01*
X017148Y017950D01*
X016648Y017950D01*
X016398Y018200D01*
X017398Y018200D02*
X017648Y017950D01*
X018148Y017950D01*
X018398Y018200D01*
X018398Y018700D01*
X018648Y018950D01*
X019148Y018950D01*
X019398Y018700D01*
X019398Y018200D01*
X019148Y017950D01*
X018648Y017950D01*
X018398Y018200D01*
X018398Y018700D02*
X018148Y018950D01*
X017648Y018950D01*
X017398Y018700D01*
X023898Y019150D02*
X024398Y019150D01*
D17*
X022148Y018400D03*
M02*
