%
M48
M72
T01C0.0236
T02C0.0360
T03C0.0394
T04C0.0400
T05C0.0433
T06C0.0512
T07C0.0866
%
T01
X9148Y2150
X9148Y3150
X11148Y4150
X12648Y4650
X11648Y6900
X11148Y7400
X9148Y4900
X15898Y10400
X18898Y12150
X19898Y12400
X21898Y13900
X19398Y14400
X18148Y14650
X16898Y14900
X19148Y10650
X19648Y10150
X20648Y10150
X19148Y7650
X18148Y7650
X18148Y5650
X19648Y5650
X19648Y3650
X19148Y3150
X20398Y3650
X21148Y2900
X24148Y11650
X24148Y12400
X7648Y13150
X6398Y14150
T02
X8093Y3272
X8093Y4206
X8093Y5094
X8093Y6028
T03
X14553Y12150
X15553Y12150
X15553Y13150
X14553Y13150
X14553Y14150
X15553Y14150
X15553Y15150
X14553Y15150
X22492Y7150
X23492Y7150
X23492Y6150
X22492Y6150
X22492Y5150
X23492Y5150
X23492Y4150
X22492Y4150
T04
X23648Y1600
X22648Y1700
X21648Y1600
X20648Y1700
X16698Y3650
X16598Y2650
X14348Y2650
X14448Y3650
X14348Y4650
X14448Y5650
X14348Y6650
X16698Y5650
X16598Y4650
X9848Y12650
X9948Y13650
X9848Y14650
X9948Y15650
X13898Y18500
X14898Y18400
X15898Y18500
X16898Y18400
X17898Y18500
X18898Y18400
X20148Y18400
X21148Y18400
X22148Y18400
X23148Y18400
X24148Y18400
X24148Y17400
X23148Y17400
X22148Y17400
X21148Y17400
X20148Y17400
T05
X7109Y3764
X7109Y5536
T06
X8648Y10150
X8648Y18024
T07
X7148Y2367
X7148Y6933
M30
